# MagicaVoxel @ Ephtracy

# group
g ruler

# material
mtllib ruler.mtl
usemtl palette

# normals
vn -1 0 0
vn 1 0 0
vn 0 0 1
vn 0 0 -1
vn 0 -1 0
vn 0 1 0

# texcoords
vt 0.751953 0.5
vt 0.958984 0.5
vt 0.970703 0.5
vt 0.982422 0.5
vt 0.986328 0.5

# verts
v -15 0 16
v -15 0 -15
v -15 1 16
v -15 1 -15
v -14 1 15
v -14 1 14
v -14 1 -13
v -14 1 -14
v -14 2 15
v -14 2 14
v -14 2 -13
v -14 2 -14
v 15 1 15
v 15 1 14
v 15 1 -13
v 15 1 -14
v 15 2 15
v 15 2 14
v 15 2 -13
v 15 2 -14
v 16 0 16
v 16 0 -15
v 16 1 16
v 16 1 -15
v -15 0 16
v -15 1 16
v 16 0 16
v 16 1 16
v -14 1 15
v -14 2 15
v -13 1 15
v -13 2 15
v 14 1 15
v 14 2 15
v 15 1 15
v 15 2 15
v -14 1 -14
v -14 2 -14
v -13 1 -14
v -13 2 -14
v 14 1 -14
v 14 2 -14
v 15 1 -14
v 15 2 -14
v -15 0 -15
v -15 1 -15
v 16 0 -15
v 16 1 -15
v -15 0 16
v 16 0 16
v -15 0 -15
v 16 0 -15
v -15 1 16
v 16 1 16
v -14 1 15
v -13 1 15
v 14 1 15
v 15 1 15
v -14 1 14
v 15 1 14
v -14 1 -13
v 15 1 -13
v -14 1 -14
v -13 1 -14
v 14 1 -14
v 15 1 -14
v -15 1 -15
v 16 1 -15
v -14 2 15
v -13 2 15
v 14 2 15
v 15 2 15
v -14 2 14
v -13 2 14
v -10 2 14
v -7 2 14
v -4 2 14
v -1 2 14
v 2 2 14
v 5 2 14
v 8 2 14
v 11 2 14
v 14 2 14
v 15 2 14
v -13 2 11
v -10 2 11
v -7 2 11
v -4 2 11
v -1 2 11
v 2 2 11
v 5 2 11
v 8 2 11
v 11 2 11
v 14 2 11
v -13 2 8
v -10 2 8
v -7 2 8
v -4 2 8
v -1 2 8
v 2 2 8
v 5 2 8
v 8 2 8
v 11 2 8
v 14 2 8
v -13 2 5
v -10 2 5
v -7 2 5
v -4 2 5
v -1 2 5
v 2 2 5
v 5 2 5
v 8 2 5
v 11 2 5
v 14 2 5
v -13 2 2
v -10 2 2
v -7 2 2
v -4 2 2
v -1 2 2
v 2 2 2
v 5 2 2
v 8 2 2
v 11 2 2
v 14 2 2
v -13 2 -1
v -10 2 -1
v -7 2 -1
v -4 2 -1
v -1 2 -1
v 2 2 -1
v 5 2 -1
v 8 2 -1
v 11 2 -1
v 14 2 -1
v -13 2 -4
v -10 2 -4
v -7 2 -4
v -4 2 -4
v -1 2 -4
v 2 2 -4
v 5 2 -4
v 8 2 -4
v 11 2 -4
v 14 2 -4
v -13 2 -7
v -10 2 -7
v -7 2 -7
v -4 2 -7
v -1 2 -7
v 2 2 -7
v 5 2 -7
v 8 2 -7
v 11 2 -7
v 14 2 -7
v -13 2 -10
v -10 2 -10
v -7 2 -10
v -4 2 -10
v -1 2 -10
v 2 2 -10
v 5 2 -10
v 8 2 -10
v 11 2 -10
v 14 2 -10
v -14 2 -13
v -13 2 -13
v -10 2 -13
v -7 2 -13
v -4 2 -13
v -1 2 -13
v 2 2 -13
v 5 2 -13
v 8 2 -13
v 11 2 -13
v 14 2 -13
v 15 2 -13
v -14 2 -14
v -13 2 -14
v 14 2 -14
v 15 2 -14

# faces
f 3/5/1 2/5/1 1/5/1
f 4/5/1 2/5/1 3/5/1
f 9/4/1 6/4/1 5/4/1
f 10/1/1 7/1/1 6/1/1
f 10/4/1 6/4/1 9/4/1
f 11/4/1 8/4/1 7/4/1
f 11/1/1 7/1/1 10/1/1
f 12/4/1 8/4/1 11/4/1
f 13/4/2 14/4/2 17/4/2
f 14/1/2 15/1/2 18/1/2
f 17/4/2 14/4/2 18/4/2
f 15/4/2 16/4/2 19/4/2
f 18/1/2 15/1/2 19/1/2
f 19/4/2 16/4/2 20/4/2
f 21/5/2 22/5/2 23/5/2
f 23/5/2 22/5/2 24/5/2
f 27/5/3 26/5/3 25/5/3
f 28/5/3 26/5/3 27/5/3
f 31/4/3 30/4/3 29/4/3
f 32/4/3 30/4/3 31/4/3
f 33/1/3 32/1/3 31/1/3
f 34/1/3 32/1/3 33/1/3
f 35/4/3 34/4/3 33/4/3
f 36/4/3 34/4/3 35/4/3
f 37/4/4 38/4/4 39/4/4
f 39/4/4 38/4/4 40/4/4
f 39/1/4 40/1/4 41/1/4
f 41/1/4 40/1/4 42/1/4
f 41/4/4 42/4/4 43/4/4
f 43/4/4 42/4/4 44/4/4
f 45/5/4 46/5/4 47/5/4
f 47/5/4 46/5/4 48/5/4
f 51/5/5 50/5/5 49/5/5
f 52/5/5 50/5/5 51/5/5
f 53/5/6 54/5/6 55/5/6
f 55/5/6 54/5/6 56/5/6
f 56/5/6 54/5/6 57/5/6
f 57/5/6 54/5/6 58/5/6
f 53/5/6 55/5/6 59/5/6
f 58/5/6 54/5/6 60/5/6
f 53/5/6 59/5/6 61/5/6
f 60/5/6 54/5/6 62/5/6
f 53/5/6 61/5/6 63/5/6
f 62/5/6 54/5/6 66/5/6
f 64/5/6 65/5/6 67/5/6
f 65/5/6 66/5/6 67/5/6
f 53/5/6 63/5/6 67/5/6
f 63/5/6 64/5/6 67/5/6
f 66/5/6 54/5/6 68/5/6
f 67/5/6 66/5/6 68/5/6
f 69/4/6 70/4/6 73/4/6
f 70/1/6 71/1/6 74/1/6
f 73/4/6 70/4/6 74/4/6
f 74/1/6 71/1/6 75/1/6
f 75/1/6 71/1/6 76/1/6
f 76/1/6 71/1/6 77/1/6
f 77/1/6 71/1/6 78/1/6
f 78/1/6 71/1/6 79/1/6
f 79/1/6 71/1/6 80/1/6
f 80/1/6 71/1/6 81/1/6
f 81/1/6 71/1/6 82/1/6
f 71/4/6 72/4/6 83/4/6
f 82/1/6 71/1/6 83/1/6
f 83/4/6 72/4/6 84/4/6
f 73/1/6 74/1/6 85/1/6
f 74/2/6 75/2/6 85/2/6
f 75/3/6 76/3/6 86/3/6
f 85/2/6 75/2/6 86/2/6
f 76/2/6 77/2/6 87/2/6
f 86/3/6 76/3/6 87/3/6
f 77/3/6 78/3/6 88/3/6
f 87/2/6 77/2/6 88/2/6
f 78/2/6 79/2/6 89/2/6
f 88/3/6 78/3/6 89/3/6
f 79/3/6 80/3/6 90/3/6
f 89/2/6 79/2/6 90/2/6
f 80/2/6 81/2/6 91/2/6
f 90/3/6 80/3/6 91/3/6
f 81/3/6 82/3/6 92/3/6
f 91/2/6 81/2/6 92/2/6
f 82/2/6 83/2/6 93/2/6
f 92/3/6 82/3/6 93/3/6
f 83/1/6 84/1/6 94/1/6
f 93/2/6 83/2/6 94/2/6
f 73/1/6 85/1/6 95/1/6
f 85/3/6 86/3/6 95/3/6
f 86/2/6 87/2/6 96/2/6
f 95/3/6 86/3/6 96/3/6
f 87/3/6 88/3/6 97/3/6
f 96/2/6 87/2/6 97/2/6
f 88/2/6 89/2/6 98/2/6
f 97/3/6 88/3/6 98/3/6
f 89/3/6 90/3/6 99/3/6
f 98/2/6 89/2/6 99/2/6
f 90/2/6 91/2/6 100/2/6
f 99/3/6 90/3/6 100/3/6
f 91/3/6 92/3/6 101/3/6
f 100/2/6 91/2/6 101/2/6
f 92/2/6 93/2/6 102/2/6
f 101/3/6 92/3/6 102/3/6
f 93/3/6 94/3/6 103/3/6
f 102/2/6 93/2/6 103/2/6
f 94/1/6 84/1/6 104/1/6
f 103/3/6 94/3/6 104/3/6
f 73/1/6 95/1/6 105/1/6
f 95/2/6 96/2/6 105/2/6
f 96/3/6 97/3/6 106/3/6
f 105/2/6 96/2/6 106/2/6
f 97/2/6 98/2/6 107/2/6
f 106/3/6 97/3/6 107/3/6
f 98/3/6 99/3/6 108/3/6
f 107/2/6 98/2/6 108/2/6
f 99/2/6 100/2/6 109/2/6
f 108/3/6 99/3/6 109/3/6
f 100/3/6 101/3/6 110/3/6
f 109/2/6 100/2/6 110/2/6
f 101/2/6 102/2/6 111/2/6
f 110/3/6 101/3/6 111/3/6
f 102/3/6 103/3/6 112/3/6
f 111/2/6 102/2/6 112/2/6
f 103/2/6 104/2/6 113/2/6
f 112/3/6 103/3/6 113/3/6
f 104/1/6 84/1/6 114/1/6
f 113/2/6 104/2/6 114/2/6
f 73/1/6 105/1/6 115/1/6
f 105/3/6 106/3/6 115/3/6
f 106/2/6 107/2/6 116/2/6
f 115/3/6 106/3/6 116/3/6
f 107/3/6 108/3/6 117/3/6
f 116/2/6 107/2/6 117/2/6
f 108/2/6 109/2/6 118/2/6
f 117/3/6 108/3/6 118/3/6
f 109/3/6 110/3/6 119/3/6
f 118/2/6 109/2/6 119/2/6
f 110/2/6 111/2/6 120/2/6
f 119/3/6 110/3/6 120/3/6
f 111/3/6 112/3/6 121/3/6
f 120/2/6 111/2/6 121/2/6
f 112/2/6 113/2/6 122/2/6
f 121/3/6 112/3/6 122/3/6
f 113/3/6 114/3/6 123/3/6
f 122/2/6 113/2/6 123/2/6
f 114/1/6 84/1/6 124/1/6
f 123/3/6 114/3/6 124/3/6
f 73/1/6 115/1/6 125/1/6
f 115/2/6 116/2/6 125/2/6
f 116/3/6 117/3/6 126/3/6
f 125/2/6 116/2/6 126/2/6
f 117/2/6 118/2/6 127/2/6
f 126/3/6 117/3/6 127/3/6
f 118/3/6 119/3/6 128/3/6
f 127/2/6 118/2/6 128/2/6
f 119/2/6 120/2/6 129/2/6
f 128/3/6 119/3/6 129/3/6
f 120/3/6 121/3/6 130/3/6
f 129/2/6 120/2/6 130/2/6
f 121/2/6 122/2/6 131/2/6
f 130/3/6 121/3/6 131/3/6
f 122/3/6 123/3/6 132/3/6
f 131/2/6 122/2/6 132/2/6
f 123/2/6 124/2/6 133/2/6
f 132/3/6 123/3/6 133/3/6
f 124/1/6 84/1/6 134/1/6
f 133/2/6 124/2/6 134/2/6
f 73/1/6 125/1/6 135/1/6
f 125/3/6 126/3/6 135/3/6
f 126/2/6 127/2/6 136/2/6
f 135/3/6 126/3/6 136/3/6
f 127/3/6 128/3/6 137/3/6
f 136/2/6 127/2/6 137/2/6
f 128/2/6 129/2/6 138/2/6
f 137/3/6 128/3/6 138/3/6
f 129/3/6 130/3/6 139/3/6
f 138/2/6 129/2/6 139/2/6
f 130/2/6 131/2/6 140/2/6
f 139/3/6 130/3/6 140/3/6
f 131/3/6 132/3/6 141/3/6
f 140/2/6 131/2/6 141/2/6
f 132/2/6 133/2/6 142/2/6
f 141/3/6 132/3/6 142/3/6
f 133/3/6 134/3/6 143/3/6
f 142/2/6 133/2/6 143/2/6
f 134/1/6 84/1/6 144/1/6
f 143/3/6 134/3/6 144/3/6
f 73/1/6 135/1/6 145/1/6
f 135/2/6 136/2/6 145/2/6
f 136/3/6 137/3/6 146/3/6
f 145/2/6 136/2/6 146/2/6
f 137/2/6 138/2/6 147/2/6
f 146/3/6 137/3/6 147/3/6
f 138/3/6 139/3/6 148/3/6
f 147/2/6 138/2/6 148/2/6
f 139/2/6 140/2/6 149/2/6
f 148/3/6 139/3/6 149/3/6
f 140/3/6 141/3/6 150/3/6
f 149/2/6 140/2/6 150/2/6
f 141/2/6 142/2/6 151/2/6
f 150/3/6 141/3/6 151/3/6
f 142/3/6 143/3/6 152/3/6
f 151/2/6 142/2/6 152/2/6
f 143/2/6 144/2/6 153/2/6
f 152/3/6 143/3/6 153/3/6
f 144/1/6 84/1/6 154/1/6
f 153/2/6 144/2/6 154/2/6
f 73/1/6 145/1/6 155/1/6
f 145/3/6 146/3/6 155/3/6
f 146/2/6 147/2/6 156/2/6
f 155/3/6 146/3/6 156/3/6
f 147/3/6 148/3/6 157/3/6
f 156/2/6 147/2/6 157/2/6
f 148/2/6 149/2/6 158/2/6
f 157/3/6 148/3/6 158/3/6
f 149/3/6 150/3/6 159/3/6
f 158/2/6 149/2/6 159/2/6
f 150/2/6 151/2/6 160/2/6
f 159/3/6 150/3/6 160/3/6
f 151/3/6 152/3/6 161/3/6
f 160/2/6 151/2/6 161/2/6
f 152/2/6 153/2/6 162/2/6
f 161/3/6 152/3/6 162/3/6
f 153/3/6 154/3/6 163/3/6
f 162/2/6 153/2/6 163/2/6
f 154/1/6 84/1/6 164/1/6
f 163/3/6 154/3/6 164/3/6
f 73/1/6 155/1/6 165/1/6
f 155/2/6 156/2/6 166/2/6
f 165/1/6 155/1/6 166/1/6
f 156/3/6 157/3/6 167/3/6
f 166/2/6 156/2/6 167/2/6
f 157/2/6 158/2/6 168/2/6
f 167/3/6 157/3/6 168/3/6
f 158/3/6 159/3/6 169/3/6
f 168/2/6 158/2/6 169/2/6
f 159/2/6 160/2/6 170/2/6
f 169/3/6 159/3/6 170/3/6
f 160/3/6 161/3/6 171/3/6
f 170/2/6 160/2/6 171/2/6
f 161/2/6 162/2/6 172/2/6
f 171/3/6 161/3/6 172/3/6
f 162/3/6 163/3/6 173/3/6
f 172/2/6 162/2/6 173/2/6
f 163/2/6 164/2/6 174/2/6
f 173/3/6 163/3/6 174/3/6
f 164/1/6 84/1/6 175/1/6
f 174/2/6 164/2/6 175/2/6
f 175/1/6 84/1/6 176/1/6
f 165/4/6 166/4/6 177/4/6
f 167/1/6 168/1/6 178/1/6
f 177/4/6 166/4/6 178/4/6
f 169/1/6 170/1/6 178/1/6
f 166/1/6 167/1/6 178/1/6
f 174/1/6 175/1/6 178/1/6
f 172/1/6 173/1/6 178/1/6
f 171/1/6 172/1/6 178/1/6
f 170/1/6 171/1/6 178/1/6
f 173/1/6 174/1/6 178/1/6
f 168/1/6 169/1/6 178/1/6
f 175/4/6 176/4/6 179/4/6
f 178/1/6 175/1/6 179/1/6
f 179/4/6 176/4/6 180/4/6
