# MagicaVoxel @ Ephtracy

# material
mtllib tile.mtl
usemtl palette

# normals
vn -1 0 0
vn 1 0 0
vn 0 0 1
vn 0 0 -1
vn 0 -1 0
vn 0 1 0

# texcoords
vt 0.306641 0.5
vt 0.939453 0.5
vt 0.986328 0.5

# verts
v -15 0 15
v -15 0 -15
v -15 1 15
v -15 1 -15
v -14 1 14
v -14 1 10
v -14 1 6
v -14 1 2
v -14 1 -2
v -14 1 -6
v -14 1 -10
v -14 1 -14
v -14 2 14
v -14 2 10
v -14 2 6
v -14 2 2
v -14 2 -2
v -14 2 -6
v -14 2 -10
v -14 2 -14
v 14 1 14
v 14 1 10
v 14 1 6
v 14 1 2
v 14 1 -2
v 14 1 -6
v 14 1 -10
v 14 1 -14
v 14 2 14
v 14 2 10
v 14 2 6
v 14 2 2
v 14 2 -2
v 14 2 -6
v 14 2 -10
v 14 2 -14
v 15 0 15
v 15 0 -15
v 15 1 15
v 15 1 -15
v -15 0 15
v -15 1 15
v 15 0 15
v 15 1 15
v -14 1 14
v -14 2 14
v -10 1 14
v -10 2 14
v -6 1 14
v -6 2 14
v -2 1 14
v -2 2 14
v 2 1 14
v 2 2 14
v 6 1 14
v 6 2 14
v 10 1 14
v 10 2 14
v 14 1 14
v 14 2 14
v -14 1 -14
v -14 2 -14
v -10 1 -14
v -10 2 -14
v -6 1 -14
v -6 2 -14
v -2 1 -14
v -2 2 -14
v 2 1 -14
v 2 2 -14
v 6 1 -14
v 6 2 -14
v 10 1 -14
v 10 2 -14
v 14 1 -14
v 14 2 -14
v -15 0 -15
v -15 1 -15
v 15 0 -15
v 15 1 -15
v -15 0 15
v 15 0 15
v -14 0 14
v 14 0 14
v -14 0 -14
v 14 0 -14
v -15 0 -15
v 15 0 -15
v -15 1 15
v 15 1 15
v -14 1 14
v -10 1 14
v -6 1 14
v -2 1 14
v 2 1 14
v 6 1 14
v 10 1 14
v 14 1 14
v -14 1 10
v 14 1 10
v -14 1 6
v 14 1 6
v -14 1 2
v 14 1 2
v -14 1 -2
v 14 1 -2
v -14 1 -6
v 14 1 -6
v -14 1 -10
v 14 1 -10
v -14 1 -14
v -10 1 -14
v -6 1 -14
v -2 1 -14
v 2 1 -14
v 6 1 -14
v 10 1 -14
v 14 1 -14
v -15 1 -15
v 15 1 -15
v -14 2 14
v -10 2 14
v -6 2 14
v -2 2 14
v 2 2 14
v 6 2 14
v 10 2 14
v 14 2 14
v -14 2 10
v -10 2 10
v -6 2 10
v -2 2 10
v 2 2 10
v 6 2 10
v 10 2 10
v 14 2 10
v -14 2 6
v -10 2 6
v -6 2 6
v -2 2 6
v 2 2 6
v 6 2 6
v 10 2 6
v 14 2 6
v -14 2 2
v -10 2 2
v -6 2 2
v -2 2 2
v 2 2 2
v 6 2 2
v 10 2 2
v 14 2 2
v -14 2 -2
v -10 2 -2
v -6 2 -2
v -2 2 -2
v 2 2 -2
v 6 2 -2
v 10 2 -2
v 14 2 -2
v -14 2 -6
v -10 2 -6
v -6 2 -6
v -2 2 -6
v 2 2 -6
v 6 2 -6
v 10 2 -6
v 14 2 -6
v -14 2 -10
v -10 2 -10
v -6 2 -10
v -2 2 -10
v 2 2 -10
v 6 2 -10
v 10 2 -10
v 14 2 -10
v -14 2 -14
v -10 2 -14
v -6 2 -14
v -2 2 -14
v 2 2 -14
v 6 2 -14
v 10 2 -14
v 14 2 -14

# faces
f 3/3/1 2/3/1 1/3/1
f 4/3/1 2/3/1 3/3/1
f 13/2/1 6/2/1 5/2/1
f 14/1/1 7/1/1 6/1/1
f 14/2/1 6/2/1 13/2/1
f 15/2/1 8/2/1 7/2/1
f 15/1/1 7/1/1 14/1/1
f 16/1/1 9/1/1 8/1/1
f 16/2/1 8/2/1 15/2/1
f 17/2/1 10/2/1 9/2/1
f 17/1/1 9/1/1 16/1/1
f 18/1/1 11/1/1 10/1/1
f 18/2/1 10/2/1 17/2/1
f 19/2/1 12/2/1 11/2/1
f 19/1/1 11/1/1 18/1/1
f 20/2/1 12/2/1 19/2/1
f 21/2/2 22/2/2 29/2/2
f 22/1/2 23/1/2 30/1/2
f 29/2/2 22/2/2 30/2/2
f 23/2/2 24/2/2 31/2/2
f 30/1/2 23/1/2 31/1/2
f 24/1/2 25/1/2 32/1/2
f 31/2/2 24/2/2 32/2/2
f 25/2/2 26/2/2 33/2/2
f 32/1/2 25/1/2 33/1/2
f 26/1/2 27/1/2 34/1/2
f 33/2/2 26/2/2 34/2/2
f 27/2/2 28/2/2 35/2/2
f 34/1/2 27/1/2 35/1/2
f 35/2/2 28/2/2 36/2/2
f 37/3/2 38/3/2 39/3/2
f 39/3/2 38/3/2 40/3/2
f 43/3/3 42/3/3 41/3/3
f 44/3/3 42/3/3 43/3/3
f 47/2/3 46/2/3 45/2/3
f 48/2/3 46/2/3 47/2/3
f 49/1/3 48/1/3 47/1/3
f 50/1/3 48/1/3 49/1/3
f 51/2/3 50/2/3 49/2/3
f 52/2/3 50/2/3 51/2/3
f 53/1/3 52/1/3 51/1/3
f 54/1/3 52/1/3 53/1/3
f 55/2/3 54/2/3 53/2/3
f 56/2/3 54/2/3 55/2/3
f 57/1/3 56/1/3 55/1/3
f 58/1/3 56/1/3 57/1/3
f 59/2/3 58/2/3 57/2/3
f 60/2/3 58/2/3 59/2/3
f 61/2/4 62/2/4 63/2/4
f 63/2/4 62/2/4 64/2/4
f 63/1/4 64/1/4 65/1/4
f 65/1/4 64/1/4 66/1/4
f 65/2/4 66/2/4 67/2/4
f 67/2/4 66/2/4 68/2/4
f 67/1/4 68/1/4 69/1/4
f 69/1/4 68/1/4 70/1/4
f 69/2/4 70/2/4 71/2/4
f 71/2/4 70/2/4 72/2/4
f 71/1/4 72/1/4 73/1/4
f 73/1/4 72/1/4 74/1/4
f 73/2/4 74/2/4 75/2/4
f 75/2/4 74/2/4 76/2/4
f 77/3/4 78/3/4 79/3/4
f 79/3/4 78/3/4 80/3/4
f 83/3/5 82/3/5 81/3/5
f 84/3/5 82/3/5 83/3/5
f 85/3/5 83/3/5 81/3/5
f 85/1/5 84/1/5 83/1/5
f 86/3/5 82/3/5 84/3/5
f 86/1/5 84/1/5 85/1/5
f 87/3/5 85/3/5 81/3/5
f 87/3/5 86/3/5 85/3/5
f 88/3/5 82/3/5 86/3/5
f 88/3/5 86/3/5 87/3/5
f 89/3/6 90/3/6 91/3/6
f 91/3/6 90/3/6 92/3/6
f 92/3/6 90/3/6 93/3/6
f 93/3/6 90/3/6 94/3/6
f 94/3/6 90/3/6 95/3/6
f 95/3/6 90/3/6 96/3/6
f 96/3/6 90/3/6 97/3/6
f 97/3/6 90/3/6 98/3/6
f 89/3/6 91/3/6 99/3/6
f 98/3/6 90/3/6 100/3/6
f 89/3/6 99/3/6 101/3/6
f 100/3/6 90/3/6 102/3/6
f 89/3/6 101/3/6 103/3/6
f 102/3/6 90/3/6 104/3/6
f 89/3/6 103/3/6 105/3/6
f 104/3/6 90/3/6 106/3/6
f 89/3/6 105/3/6 107/3/6
f 106/3/6 90/3/6 108/3/6
f 89/3/6 107/3/6 109/3/6
f 108/3/6 90/3/6 110/3/6
f 89/3/6 109/3/6 111/3/6
f 110/3/6 90/3/6 118/3/6
f 116/3/6 117/3/6 119/3/6
f 117/3/6 118/3/6 119/3/6
f 89/3/6 111/3/6 119/3/6
f 111/3/6 112/3/6 119/3/6
f 115/3/6 116/3/6 119/3/6
f 114/3/6 115/3/6 119/3/6
f 113/3/6 114/3/6 119/3/6
f 112/3/6 113/3/6 119/3/6
f 118/3/6 90/3/6 120/3/6
f 119/3/6 118/3/6 120/3/6
f 121/2/6 122/2/6 129/2/6
f 122/1/6 123/1/6 130/1/6
f 129/2/6 122/2/6 130/2/6
f 123/2/6 124/2/6 131/2/6
f 130/1/6 123/1/6 131/1/6
f 124/1/6 125/1/6 132/1/6
f 131/2/6 124/2/6 132/2/6
f 125/2/6 126/2/6 133/2/6
f 132/1/6 125/1/6 133/1/6
f 126/1/6 127/1/6 134/1/6
f 133/2/6 126/2/6 134/2/6
f 127/2/6 128/2/6 135/2/6
f 134/1/6 127/1/6 135/1/6
f 135/2/6 128/2/6 136/2/6
f 129/1/6 130/1/6 137/1/6
f 130/2/6 131/2/6 138/2/6
f 137/1/6 130/1/6 138/1/6
f 131/1/6 132/1/6 139/1/6
f 138/2/6 131/2/6 139/2/6
f 132/2/6 133/2/6 140/2/6
f 139/1/6 132/1/6 140/1/6
f 133/1/6 134/1/6 141/1/6
f 140/2/6 133/2/6 141/2/6
f 134/2/6 135/2/6 142/2/6
f 141/1/6 134/1/6 142/1/6
f 135/1/6 136/1/6 143/1/6
f 142/2/6 135/2/6 143/2/6
f 143/1/6 136/1/6 144/1/6
f 137/2/6 138/2/6 145/2/6
f 138/1/6 139/1/6 146/1/6
f 145/2/6 138/2/6 146/2/6
f 139/2/6 140/2/6 147/2/6
f 146/1/6 139/1/6 147/1/6
f 140/1/6 141/1/6 148/1/6
f 147/2/6 140/2/6 148/2/6
f 141/2/6 142/2/6 149/2/6
f 148/1/6 141/1/6 149/1/6
f 142/1/6 143/1/6 150/1/6
f 149/2/6 142/2/6 150/2/6
f 143/2/6 144/2/6 151/2/6
f 150/1/6 143/1/6 151/1/6
f 151/2/6 144/2/6 152/2/6
f 145/1/6 146/1/6 153/1/6
f 146/2/6 147/2/6 154/2/6
f 153/1/6 146/1/6 154/1/6
f 147/1/6 148/1/6 155/1/6
f 154/2/6 147/2/6 155/2/6
f 148/2/6 149/2/6 156/2/6
f 155/1/6 148/1/6 156/1/6
f 149/1/6 150/1/6 157/1/6
f 156/2/6 149/2/6 157/2/6
f 150/2/6 151/2/6 158/2/6
f 157/1/6 150/1/6 158/1/6
f 151/1/6 152/1/6 159/1/6
f 158/2/6 151/2/6 159/2/6
f 159/1/6 152/1/6 160/1/6
f 153/2/6 154/2/6 161/2/6
f 154/1/6 155/1/6 162/1/6
f 161/2/6 154/2/6 162/2/6
f 155/2/6 156/2/6 163/2/6
f 162/1/6 155/1/6 163/1/6
f 156/1/6 157/1/6 164/1/6
f 163/2/6 156/2/6 164/2/6
f 157/2/6 158/2/6 165/2/6
f 164/1/6 157/1/6 165/1/6
f 158/1/6 159/1/6 166/1/6
f 165/2/6 158/2/6 166/2/6
f 159/2/6 160/2/6 167/2/6
f 166/1/6 159/1/6 167/1/6
f 167/2/6 160/2/6 168/2/6
f 161/1/6 162/1/6 169/1/6
f 162/2/6 163/2/6 170/2/6
f 169/1/6 162/1/6 170/1/6
f 163/1/6 164/1/6 171/1/6
f 170/2/6 163/2/6 171/2/6
f 164/2/6 165/2/6 172/2/6
f 171/1/6 164/1/6 172/1/6
f 165/1/6 166/1/6 173/1/6
f 172/2/6 165/2/6 173/2/6
f 166/2/6 167/2/6 174/2/6
f 173/1/6 166/1/6 174/1/6
f 167/1/6 168/1/6 175/1/6
f 174/2/6 167/2/6 175/2/6
f 175/1/6 168/1/6 176/1/6
f 169/2/6 170/2/6 177/2/6
f 170/1/6 171/1/6 178/1/6
f 177/2/6 170/2/6 178/2/6
f 171/2/6 172/2/6 179/2/6
f 178/1/6 171/1/6 179/1/6
f 172/1/6 173/1/6 180/1/6
f 179/2/6 172/2/6 180/2/6
f 173/2/6 174/2/6 181/2/6
f 180/1/6 173/1/6 181/1/6
f 174/1/6 175/1/6 182/1/6
f 181/2/6 174/2/6 182/2/6
f 175/2/6 176/2/6 183/2/6
f 182/1/6 175/1/6 183/1/6
f 183/2/6 176/2/6 184/2/6
