# MagicaVoxel @ Ephtracy

# material
mtllib tile-corner.mtl
usemtl palette

# normals
vn -1 0 0
vn 1 0 0
vn 0 0 1
vn 0 0 -1
vn 0 -1 0
vn 0 1 0

# texcoords
vt 0.306641 0.5
vt 0.841797 0.5
vt 0.888672 0.5
vt 0.919922 0.5
vt 0.939453 0.5
vt 0.986328 0.5

# verts
v -15 0 15
v -15 0 -15
v -15 29 15
v -15 29 11
v -15 29 -10
v -15 29 -15
v -15 30 15
v -15 30 11
v -15 30 -10
v -15 30 -15
v -13 1 15
v -13 1 14
v -13 2 14
v -13 2 10
v -13 2 6
v -13 2 2
v -13 2 -2
v -13 2 -6
v -13 2 -10
v -13 2 -13
v -13 29 15
v -13 29 14
v -13 30 15
v -13 30 14
v -13 30 -13
v 14 1 14
v 14 1 10
v 14 1 6
v 14 1 2
v 14 1 -2
v 14 1 -6
v 14 1 -10
v 14 1 -13
v 14 2 14
v 14 2 10
v 14 2 6
v 14 2 2
v 14 2 -2
v 14 2 -6
v 14 2 -10
v 14 2 -13
v 15 0 15
v 15 0 -13
v 15 0 -15
v 15 1 15
v 15 1 -13
v 15 29 -13
v 15 29 -15
v 15 30 -13
v 15 30 -15
v -15 0 15
v -15 29 15
v -15 30 15
v -13 0 15
v -13 1 15
v -13 29 15
v -13 30 15
v 15 0 15
v 15 1 15
v -13 1 14
v -13 2 14
v -10 1 14
v -10 2 14
v -6 1 14
v -6 2 14
v -2 1 14
v -2 2 14
v 2 1 14
v 2 2 14
v 6 1 14
v 6 2 14
v 10 1 14
v 10 2 14
v 14 1 14
v 14 2 14
v -13 2 -13
v -13 30 -13
v -10 2 -13
v -6 2 -13
v -2 2 -13
v 2 2 -13
v 6 2 -13
v 10 2 -13
v 14 1 -13
v 14 2 -13
v 14 29 -13
v 14 30 -13
v 15 1 -13
v 15 29 -13
v 15 30 -13
v -15 0 -15
v -15 29 -15
v -15 30 -15
v -11 29 -15
v -11 30 -15
v 12 29 -15
v 12 30 -15
v 15 0 -15
v 15 29 -15
v 15 30 -15
v -15 0 15
v -13 0 15
v 15 0 15
v -13 0 14
v 14 0 14
v 14 0 -13
v 15 0 -13
v -15 0 -15
v 15 0 -15
v -13 1 15
v 15 1 15
v -13 1 14
v -10 1 14
v -6 1 14
v -2 1 14
v 2 1 14
v 6 1 14
v 10 1 14
v 14 1 14
v 14 1 10
v 14 1 6
v 14 1 2
v 14 1 -2
v 14 1 -6
v 14 1 -10
v 14 1 -13
v 15 1 -13
v -13 2 14
v -10 2 14
v -6 2 14
v -2 2 14
v 2 2 14
v 6 2 14
v 10 2 14
v 14 2 14
v -13 2 10
v -10 2 10
v -6 2 10
v -2 2 10
v 2 2 10
v 6 2 10
v 10 2 10
v 14 2 10
v -13 2 6
v -10 2 6
v -6 2 6
v -2 2 6
v 2 2 6
v 6 2 6
v 10 2 6
v 14 2 6
v -13 2 2
v -10 2 2
v -6 2 2
v -2 2 2
v 2 2 2
v 6 2 2
v 10 2 2
v 14 2 2
v -13 2 -2
v -10 2 -2
v -6 2 -2
v -2 2 -2
v 2 2 -2
v 6 2 -2
v 10 2 -2
v 14 2 -2
v -13 2 -6
v -10 2 -6
v -6 2 -6
v -2 2 -6
v 2 2 -6
v 6 2 -6
v 10 2 -6
v 14 2 -6
v -13 2 -10
v -10 2 -10
v -6 2 -10
v -2 2 -10
v 2 2 -10
v 6 2 -10
v 10 2 -10
v 14 2 -10
v -13 2 -13
v -10 2 -13
v -6 2 -13
v -2 2 -13
v 2 2 -13
v 6 2 -13
v 10 2 -13
v 14 2 -13
v -15 30 15
v -13 30 15
v -14 30 14
v -13 30 14
v -15 30 11
v -14 30 11
v -15 30 -10
v -14 30 -10
v -13 30 -13
v 14 30 -13
v 15 30 -13
v -14 30 -14
v -11 30 -14
v 12 30 -14
v 14 30 -14
v -15 30 -15
v -11 30 -15
v 12 30 -15
v 15 30 -15

# faces
f 3/1/1 2/1/1 1/1/1
f 4/1/1 2/1/1 3/1/1
f 5/1/1 2/1/1 4/1/1
f 6/1/1 2/1/1 5/1/1
f 7/3/1 4/3/1 3/3/1
f 8/1/1 5/1/1 4/1/1
f 8/3/1 4/3/1 7/3/1
f 9/2/1 6/2/1 5/2/1
f 9/1/1 5/1/1 8/1/1
f 10/2/1 6/2/1 9/2/1
f 11/1/2 12/1/2 13/1/2
f 11/1/2 13/1/2 21/1/2
f 19/1/2 20/1/2 21/1/2
f 18/1/2 19/1/2 21/1/2
f 17/1/2 18/1/2 21/1/2
f 16/1/2 17/1/2 21/1/2
f 15/1/2 16/1/2 21/1/2
f 14/1/2 15/1/2 21/1/2
f 13/1/2 14/1/2 21/1/2
f 21/1/2 20/1/2 22/1/2
f 21/3/2 22/3/2 23/3/2
f 22/1/2 20/1/2 24/1/2
f 23/3/2 22/3/2 24/3/2
f 24/1/2 20/1/2 25/1/2
f 26/5/2 27/5/2 34/5/2
f 27/1/2 28/1/2 35/1/2
f 34/5/2 27/5/2 35/5/2
f 28/5/2 29/5/2 36/5/2
f 35/1/2 28/1/2 36/1/2
f 29/1/2 30/1/2 37/1/2
f 36/5/2 29/5/2 37/5/2
f 30/5/2 31/5/2 38/5/2
f 37/1/2 30/1/2 38/1/2
f 31/1/2 32/1/2 39/1/2
f 38/5/2 31/5/2 39/5/2
f 32/5/2 33/5/2 40/5/2
f 39/1/2 32/1/2 40/1/2
f 40/5/2 33/5/2 41/5/2
f 42/6/2 43/6/2 45/6/2
f 43/1/2 44/1/2 46/1/2
f 45/6/2 43/6/2 46/6/2
f 46/1/2 44/1/2 47/1/2
f 47/1/2 44/1/2 48/1/2
f 47/4/2 48/4/2 49/4/2
f 49/4/2 48/4/2 50/4/2
f 54/1/3 52/1/3 51/1/3
f 55/1/3 52/1/3 54/1/3
f 56/3/3 53/3/3 52/3/3
f 56/1/3 52/1/3 55/1/3
f 57/3/3 53/3/3 56/3/3
f 58/6/3 55/6/3 54/6/3
f 59/6/3 55/6/3 58/6/3
f 62/5/3 61/5/3 60/5/3
f 63/5/3 61/5/3 62/5/3
f 64/1/3 63/1/3 62/1/3
f 65/1/3 63/1/3 64/1/3
f 66/5/3 65/5/3 64/5/3
f 67/5/3 65/5/3 66/5/3
f 68/1/3 67/1/3 66/1/3
f 69/1/3 67/1/3 68/1/3
f 70/5/3 69/5/3 68/5/3
f 71/5/3 69/5/3 70/5/3
f 72/1/3 71/1/3 70/1/3
f 73/1/3 71/1/3 72/1/3
f 74/5/3 73/5/3 72/5/3
f 75/5/3 73/5/3 74/5/3
f 78/1/3 77/1/3 76/1/3
f 79/1/3 77/1/3 78/1/3
f 80/1/3 77/1/3 79/1/3
f 81/1/3 77/1/3 80/1/3
f 82/1/3 77/1/3 81/1/3
f 83/1/3 77/1/3 82/1/3
f 85/1/3 77/1/3 83/1/3
f 86/1/3 77/1/3 85/1/3
f 87/1/3 77/1/3 86/1/3
f 88/1/3 85/1/3 84/1/3
f 88/1/3 86/1/3 85/1/3
f 89/4/3 87/4/3 86/4/3
f 89/1/3 86/1/3 88/1/3
f 90/4/3 87/4/3 89/4/3
f 91/1/4 92/1/4 94/1/4
f 92/2/4 93/2/4 94/2/4
f 94/2/4 93/2/4 95/2/4
f 91/1/4 94/1/4 96/1/4
f 94/1/4 95/1/4 96/1/4
f 96/1/4 95/1/4 97/1/4
f 91/1/4 96/1/4 98/1/4
f 96/4/4 97/4/4 99/4/4
f 98/1/4 96/1/4 99/1/4
f 99/4/4 97/4/4 100/4/4
f 104/1/5 102/1/5 101/1/5
f 104/6/5 103/6/5 102/6/5
f 105/6/5 103/6/5 104/6/5
f 106/1/5 105/1/5 104/1/5
f 106/6/5 103/6/5 105/6/5
f 107/6/5 103/6/5 106/6/5
f 108/1/5 104/1/5 101/1/5
f 108/1/5 106/1/5 104/1/5
f 108/1/5 107/1/5 106/1/5
f 109/1/5 107/1/5 108/1/5
f 110/6/6 111/6/6 112/6/6
f 112/6/6 111/6/6 113/6/6
f 113/6/6 111/6/6 114/6/6
f 114/6/6 111/6/6 115/6/6
f 115/6/6 111/6/6 116/6/6
f 116/6/6 111/6/6 117/6/6
f 117/6/6 111/6/6 118/6/6
f 118/6/6 111/6/6 119/6/6
f 119/6/6 111/6/6 120/6/6
f 120/6/6 111/6/6 121/6/6
f 121/6/6 111/6/6 122/6/6
f 122/6/6 111/6/6 123/6/6
f 123/6/6 111/6/6 124/6/6
f 124/6/6 111/6/6 125/6/6
f 125/6/6 111/6/6 126/6/6
f 126/6/6 111/6/6 127/6/6
f 128/5/6 129/5/6 136/5/6
f 129/1/6 130/1/6 137/1/6
f 136/5/6 129/5/6 137/5/6
f 130/5/6 131/5/6 138/5/6
f 137/1/6 130/1/6 138/1/6
f 131/1/6 132/1/6 139/1/6
f 138/5/6 131/5/6 139/5/6
f 132/5/6 133/5/6 140/5/6
f 139/1/6 132/1/6 140/1/6
f 133/1/6 134/1/6 141/1/6
f 140/5/6 133/5/6 141/5/6
f 134/5/6 135/5/6 142/5/6
f 141/1/6 134/1/6 142/1/6
f 142/5/6 135/5/6 143/5/6
f 136/1/6 137/1/6 144/1/6
f 137/5/6 138/5/6 145/5/6
f 144/1/6 137/1/6 145/1/6
f 138/1/6 139/1/6 146/1/6
f 145/5/6 138/5/6 146/5/6
f 139/5/6 140/5/6 147/5/6
f 146/1/6 139/1/6 147/1/6
f 140/1/6 141/1/6 148/1/6
f 147/5/6 140/5/6 148/5/6
f 141/5/6 142/5/6 149/5/6
f 148/1/6 141/1/6 149/1/6
f 142/1/6 143/1/6 150/1/6
f 149/5/6 142/5/6 150/5/6
f 150/1/6 143/1/6 151/1/6
f 144/5/6 145/5/6 152/5/6
f 145/1/6 146/1/6 153/1/6
f 152/5/6 145/5/6 153/5/6
f 146/5/6 147/5/6 154/5/6
f 153/1/6 146/1/6 154/1/6
f 147/1/6 148/1/6 155/1/6
f 154/5/6 147/5/6 155/5/6
f 148/5/6 149/5/6 156/5/6
f 155/1/6 148/1/6 156/1/6
f 149/1/6 150/1/6 157/1/6
f 156/5/6 149/5/6 157/5/6
f 150/5/6 151/5/6 158/5/6
f 157/1/6 150/1/6 158/1/6
f 158/5/6 151/5/6 159/5/6
f 152/1/6 153/1/6 160/1/6
f 153/5/6 154/5/6 161/5/6
f 160/1/6 153/1/6 161/1/6
f 154/1/6 155/1/6 162/1/6
f 161/5/6 154/5/6 162/5/6
f 155/5/6 156/5/6 163/5/6
f 162/1/6 155/1/6 163/1/6
f 156/1/6 157/1/6 164/1/6
f 163/5/6 156/5/6 164/5/6
f 157/5/6 158/5/6 165/5/6
f 164/1/6 157/1/6 165/1/6
f 158/1/6 159/1/6 166/1/6
f 165/5/6 158/5/6 166/5/6
f 166/1/6 159/1/6 167/1/6
f 160/5/6 161/5/6 168/5/6
f 161/1/6 162/1/6 169/1/6
f 168/5/6 161/5/6 169/5/6
f 162/5/6 163/5/6 170/5/6
f 169/1/6 162/1/6 170/1/6
f 163/1/6 164/1/6 171/1/6
f 170/5/6 163/5/6 171/5/6
f 164/5/6 165/5/6 172/5/6
f 171/1/6 164/1/6 172/1/6
f 165/1/6 166/1/6 173/1/6
f 172/5/6 165/5/6 173/5/6
f 166/5/6 167/5/6 174/5/6
f 173/1/6 166/1/6 174/1/6
f 174/5/6 167/5/6 175/5/6
f 168/1/6 169/1/6 176/1/6
f 169/5/6 170/5/6 177/5/6
f 176/1/6 169/1/6 177/1/6
f 170/1/6 171/1/6 178/1/6
f 177/5/6 170/5/6 178/5/6
f 171/5/6 172/5/6 179/5/6
f 178/1/6 171/1/6 179/1/6
f 172/1/6 173/1/6 180/1/6
f 179/5/6 172/5/6 180/5/6
f 173/5/6 174/5/6 181/5/6
f 180/1/6 173/1/6 181/1/6
f 174/1/6 175/1/6 182/1/6
f 181/5/6 174/5/6 182/5/6
f 182/1/6 175/1/6 183/1/6
f 176/5/6 177/5/6 184/5/6
f 177/1/6 178/1/6 185/1/6
f 184/5/6 177/5/6 185/5/6
f 178/5/6 179/5/6 186/5/6
f 185/1/6 178/1/6 186/1/6
f 179/1/6 180/1/6 187/1/6
f 186/5/6 179/5/6 187/5/6
f 180/5/6 181/5/6 188/5/6
f 187/1/6 180/1/6 188/1/6
f 181/1/6 182/1/6 189/1/6
f 188/5/6 181/5/6 189/5/6
f 182/5/6 183/5/6 190/5/6
f 189/1/6 182/1/6 190/1/6
f 190/5/6 183/5/6 191/5/6
f 192/3/6 193/3/6 194/3/6
f 194/3/6 193/3/6 195/3/6
f 192/3/6 194/3/6 196/3/6
f 194/1/6 195/1/6 197/1/6
f 196/3/6 194/3/6 197/3/6
f 196/1/6 197/1/6 198/1/6
f 197/1/6 195/1/6 199/1/6
f 198/1/6 197/1/6 199/1/6
f 199/1/6 195/1/6 200/1/6
f 199/1/6 200/1/6 203/1/6
f 198/2/6 199/2/6 203/2/6
f 200/1/6 201/1/6 203/1/6
f 203/1/6 201/1/6 204/1/6
f 204/1/6 201/1/6 205/1/6
f 201/4/6 202/4/6 206/4/6
f 205/1/6 201/1/6 206/1/6
f 198/2/6 203/2/6 207/2/6
f 203/2/6 204/2/6 207/2/6
f 204/1/6 205/1/6 208/1/6
f 207/2/6 204/2/6 208/2/6
f 205/4/6 206/4/6 209/4/6
f 208/1/6 205/1/6 209/1/6
f 206/4/6 202/4/6 210/4/6
f 209/4/6 206/4/6 210/4/6
